<svg xmlns="http://www.w3.org/2000/svg" width="28" height="28" viewBox="0 0 28 28"><path d="M11 6q-2.39 0-4.47.812T3.227 9.015 2 12q0 1.28.827 2.468t2.328 2.063l1.516.876-.546 1.313q.53-.314.97-.61l.687-.484.83.156q1.218.22 2.39.22 2.39 0 4.47-.813t3.304-2.204T20 12.002t-1.226-2.984-3.305-2.203T11 6.003zm0-2q2.984 0 5.523 1.07t4.008 2.914T22 12t-1.47 4.016-4.007 2.914T11 20q-1.344 0-2.75-.25-1.937 1.375-4.344 2-.562.14-1.344.25h-.047q-.172 0-.32-.125t-.18-.328Q2 21.5 2 21.445t.007-.102.03-.094l.04-.08.055-.085.063-.078.07-.078.063-.07q.078-.095.36-.392t.405-.46.352-.454.39-.602.32-.688Q2.22 17.14 1.11 15.498T0 11.998q0-2.172 1.47-4.016t4.007-2.914T11 3.998zm12.844 18.266q.156.375.32.688t.39.602.353.453.406.46.36.39l.062.07.07.08.063.077.055.086.04.078.03.095.008.102-.015.102q-.047.218-.203.343t-.344.11q-.78-.11-1.344-.25-2.406-.626-4.344-2-1.406.25-2.75.25-4.234 0-7.375-2.064Q10.53 22 11 22q2.516 0 4.828-.703t4.125-2.017q1.953-1.437 3-3.313T24 12q0-1.202-.36-2.374 2.017 1.11 3.188 2.78T28 16.002q0 1.876-1.11 3.51t-3.046 2.757z"/></svg>