<svg xmlns="http://www.w3.org/2000/svg" height="86.467" width="86.467" viewBox="0 0 86.467499 86.466751"><path d="M55.38 43.232l30.218-30.22c1.16-1.158 1.16-3.036 0-4.194l-7.95-7.95C76.49-.29 74.612-.29 73.453.868l-30.22 30.22L13.016.867C11.857-.29 9.978-.29 8.82.868L.87 8.818c-1.16 1.158-1.16 3.036 0 4.195l30.218 30.22L.87 73.452c-1.16 1.158-1.16 3.036 0 4.194l7.95 7.95c1.158 1.16 3.037 1.16 4.195 0l30.22-30.218L73.45 85.596c1.16 1.16 3.037 1.16 4.195 0l7.95-7.95c1.16-1.158 1.16-3.036 0-4.195L55.38 43.232z"/></svg>