<svg xmlns="http://www.w3.org/2000/svg" width="24" height="28" viewBox="0 0 24 28"><path d="M16 14q0-1.656-1.172-2.828T12 10t-2.828 1.172T8 14t1.172 2.828T12 18t2.828-1.172T16 14zm8-1.703v3.47q0 .186-.125.358t-.313.203l-2.89.438q-.298.844-.61 1.422.547.78 1.672 2.156.156.187.156.39t-.14.36q-.423.578-1.548 1.687t-1.47 1.11q-.186 0-.405-.14L16.17 22.06q-.687.36-1.42.594-.25 2.125-.454 2.906-.11.438-.562.438h-3.47q-.218 0-.382-.133t-.18-.336l-.438-2.874q-.766-.25-1.406-.578L5.655 23.75q-.156.14-.39.14-.22 0-.392-.17-1.97-1.782-2.578-2.626-.11-.156-.11-.36 0-.186.126-.358.235-.328.798-1.04t.844-1.1q-.422-.782-.64-1.548l-2.86-.422q-.203-.03-.328-.195T0 15.705v-3.47q0-.186.124-.358t.297-.203l2.907-.438q.22-.72.61-1.437-.626-.89-1.673-2.156-.156-.187-.156-.375 0-.156.14-.36.407-.56 1.54-1.68t1.477-1.116q.203 0 .406.157L7.828 5.94q.688-.36 1.422-.595Q9.5 3.22 9.7 2.44 9.812 2 10.264 2h3.47q.218 0 .382.133t.18.336l.438 2.876q.766.25 1.406.578l2.22-1.672q.14-.14.374-.14.203 0 .39.155 2.017 1.86 2.58 2.656.108.125.108.344 0 .187-.125.36-.234.327-.797 1.038t-.844 1.102q.406.78.64 1.53l2.86.44q.203.03.328.194T24 12.3z"/></svg>