<svg xmlns="http://www.w3.org/2000/svg" width="24" height="28" viewBox="0 0 24 28"><path d="M5.453 9.766V25.25H.297V9.766h5.156zm.328-4.782q.017 1.14-.788 1.906t-2.117.766h-.03q-1.282 0-2.064-.766T0 4.984Q0 3.828.805 3.07t2.102-.758 2.078.758.797 1.914zM24 16.374v8.876h-5.14v-8.28q0-1.642-.634-2.57t-1.977-.93q-.985 0-1.65.538t-.99 1.336q-.173.47-.173 1.266v8.64h-5.14q.03-6.233.03-10.108t-.016-4.625l-.015-.75h5.14v2.25h-.03q.313-.5.64-.875t.884-.812 1.358-.68 1.79-.242q2.67 0 4.296 1.773T24 16.377z"/></svg>