<svg xmlns="http://www.w3.org/2000/svg" height="22.001" width="26.001" viewBox="0 0 26.000999 22.000999"><path d="M12 13v6q0 1.25-.875 2.126T9 22H3q-1.25 0-2.125-.874T0 19V8q0-1.624.633-3.1t1.71-2.556T4.9.634 8 0h1q.407 0 .704.297T10 1v2q0 .406-.296.703T9 4H8Q6.346 4 5.174 5.172T4 8v.5q0 .625.44 1.062T5.5 10H9q1.25 0 2.126.875T12 13zm14 0v6q0 1.25-.875 2.126T23 22h-6q-1.25 0-2.125-.874T14 19V8q0-1.624.633-3.1t1.71-2.556T18.9.634 22 0h1q.407 0 .704.297T24 1v2q0 .406-.296.703T23 4h-1q-1.655 0-2.827 1.172T18 8v.5q0 .625.44 1.062T19.5 10H23q1.25 0 2.126.875T26 13z"/></svg>