<svg xmlns="http://www.w3.org/2000/svg" viewBox="0 0 100 100"><path d="M41.492 11.305c7.653 0 14.313 4.217 17.81 10.448 1.23-.39 2.536-.6 3.894-.6 5.82 0 10.734 3.856 12.34 9.153 10.383.96 18.516 9.69 18.516 20.323 0 11.277-9.143 20.42-20.42 20.42H26.368c-11.277 0-20.42-9.143-20.42-20.42 0-9.458 6.438-17.39 15.165-19.713.427-10.9 9.374-19.612 20.38-19.612m0-3c-11.894 0-21.702 8.784-23.198 20.36C9.16 32.015 2.948 40.763 2.948 50.63c0 12.914 10.506 23.42 23.42 23.42H73.63c12.915 0 23.42-10.506 23.42-23.42 0-11.522-8.185-21.12-19.335-23.058-2.525-5.707-8.137-9.42-14.52-9.42-.838 0-1.67.065-2.492.196C56.35 12.102 49.18 8.305 41.493 8.305z"/><path d="M94 91H64v-.5c0-.828-.672-1.5-1.5-1.5H51V74c0-.828-.67-1.5-1.5-1.5S48 73.172 48 74v15H37.5c-.83 0-1.5.672-1.5 1.5v.5H4c-.83 0-1.5.672-1.5 1.5S3.17 94 4 94h32v.5c0 .828.67 1.5 1.5 1.5h25c.828 0 1.5-.672 1.5-1.5V94h30c.828 0 1.5-.672 1.5-1.5S94.828 91 94 91z"/></svg>