<svg xmlns="http://www.w3.org/2000/svg" viewBox="-247 370.9 100 100"><path d="M-159.5 375.9h-75c-2.1 0-3.7 1.7-3.7 3.8v19.5c0 2 1.6 3.7 3.7 3.7h74.9c2.1 0 3.8-1.7 3.8-3.8v-19.4c0-2.1-1.6-3.8-3.7-3.8zm1.9 23.2c0 1-.8 1.9-1.9 1.9h-75c-1 0-1.9-.8-1.9-1.9v-19.4c0-1 .8-1.9 1.9-1.9h74.9c1 0 1.9.8 1.9 1.9l.1 19.4zM-159.5 438.9h-75c-2.1 0-3.8 1.7-3.8 3.8v19.5c0 2.1 1.7 3.8 3.8 3.8h74.9c2.1 0 3.8-1.7 3.8-3.8v-19.5c0-2.1-1.6-3.8-3.7-3.8zm1.9 23.2c0 1-.8 1.9-1.9 1.9h-75c-1 0-1.9-.8-1.9-1.9v-19.4c0-1 .8-1.9 1.9-1.9h74.9c1 0 1.9.8 1.9 1.9l.1 19.4zM-159.5 407.4h-75c-2.1 0-3.8 1.7-3.8 3.8v19.5c.1 2 1.7 3.7 3.8 3.7h74.9c2.1 0 3.8-1.7 3.8-3.8v-19.4c0-2.1-1.6-3.8-3.7-3.8zm1.9 23.2c0 1-.8 1.9-1.9 1.9h-75c-1 0-1.9-.8-1.9-1.9v-19.4c0-1 .8-1.9 1.9-1.9h74.9c1 0 1.9.8 1.9 1.9l.1 19.4z"/><circle cx="-172.6" cy="420.9" r="3.8"/><circle cx="-172.6" cy="389.4" r="3.8"/><circle cx="-172.6" cy="452.2" r="3.8"/><path d="M-198.9 387.5h-26.2c-1.1 0-1.9.8-1.9 1.9s.8 1.9 1.9 1.9h26.3c1.1 0 1.9-.8 1.9-1.9-.1-1.1-.9-1.9-2-1.9zM-198.9 419h-26.2c-1.1 0-1.9.8-1.9 1.9s.8 1.9 1.9 1.9h26.3c1.1 0 1.9-.8 1.9-1.9-.1-1.1-.9-1.9-2-1.9zM-198.9 450.3h-26.2c-1.1 0-1.9.8-1.9 1.9s.8 1.9 1.9 1.9h26.3c1.1 0 1.9-.8 1.9-1.9-.1-1.1-.9-1.9-2-1.9z"/></svg>