<svg xmlns="http://www.w3.org/2000/svg" viewBox="0 0 48 48"><path d="M46.5 47.5h-34c-.6 0-1-.4-1-1v-9.8c0-.6.4-1 1-1h34c.6 0 1 .4 1 1v9.8c0 .6-.4 1-1 1zm-33-2h32v-7.8h-32v7.8z"/><path d="M24 42.6h-6.2c-.6 0-1-.4-1-1s.4-1 1-1H24c.6 0 1 .4 1 1s-.5 1-1 1z"/><circle cx="39.6" cy="41.6" r="1.5"/><g><path d="M46.5 29.9h-34c-.6 0-1-.4-1-1v-9.8c0-.6.4-1 1-1h34c.6 0 1 .4 1 1v9.8c0 .6-.4 1-1 1zm-33-2h32v-7.8h-32v7.8z"/><path d="M24 25h-6.2c-.6 0-1-.4-1-1s.4-1 1-1H24c.6 0 1 .4 1 1 0 .5-.5 1-1 1z"/><circle cx="39.6" cy="24" r="1.5"/></g><path d="M12.4 26.4h-1.7C5.1 26.4.5 21.8.5 16.2c0-6.1 5.4-11 11.6-10.1 1.6-3.4 5-5.7 8.8-5.7 3.3 0 6.4 1.7 8.2 4.5 1.9-1.3 4.2-2 6.6-2 6.5 0 11.8 5.3 11.8 11.7 0 1.6-.3 3.1-.9 4.6-.2.5-.8.7-1.3.5-.5-.2-.7-.8-.5-1.3.5-1.2.8-2.5.8-3.8 0-5.4-4.4-9.7-9.8-9.7-2.3 0-4.5.8-6.3 2.3-.2.2-.6.3-.9.2-.3-.1-.6-.3-.7-.5-1.3-2.7-4-4.4-7-4.4-3.3 0-6.2 2.1-7.3 5.1-.2.5-.7.7-1.2.6-5.3-1.2-10 2.9-10 8 0 4.5 3.7 8.2 8.2 8.2h1.7c.6 0 1 .4 1 1 .1.6-.4 1-.9 1z"/></svg>