<svg xmlns="http://www.w3.org/2000/svg" width="32" height="28" viewBox="0 0 32 28"><path d="M22.86 13q0 .547-.392.945t-.953.398h-10.97q-.56 0-.952-.398T9.203 13t.39-.945.953-.398h10.97q.56 0 .952.398t.39.945zm3.343 0q0-1.344-.36-2.656H10.5q-.562 0-.953-.39t-.39-.94q0-.56.39-.952t.953-.39h14.187q-1.375-2.235-3.672-3.548t-5-1.313q-2.766 0-5.117 1.368t-3.72 3.71T5.813 13q0 1.344.36 2.656h15.343q.562 0 .953.39t.39.94q0 .56-.39.952t-.953.39H7.328q1.375 2.235 3.68 3.548t5.008 1.313q2.063 0 3.953-.805t3.25-2.172 2.17-3.25.813-3.96zM32 9.016q0 .547-.39.938t-.954.39H28.61q.265 1.33.265 2.657 0 2.61-1.023 4.993t-2.742 4.11-4.102 2.75-4.992 1.022q-3.844 0-7.008-2.078t-4.71-5.47H1.343q-.562 0-.953-.39T0 16.984q0-.547.39-.938t.954-.39h2.063q-.266-1.33-.266-2.657 0-2.61 1.024-4.993t2.742-4.11 4.102-2.75T16.016.126q3.828 0 6.992 2.078t4.71 5.47h2.94q.56 0 .952.39t.39.953z"/></svg>