<?xml version="1.0" encoding="UTF-8" standalone="no"?>
<svg xmlns:rdf="http://www.w3.org/1999/02/22-rdf-syntax-ns#" xmlns="http://www.w3.org/2000/svg" enable-background="new 0 0 100 100" xml:space="preserve" height="86.467" width="86.467" version="1.1" y="0px" x="0px" xmlns:cc="http://creativecommons.org/ns#" xmlns:dc="http://purl.org/dc/elements/1.1/" viewBox="0 0 86.467499 86.466751"><path d="m55.38 43.232 30.218-30.219c1.159-1.159 1.159-3.037 0-4.195l-7.95-7.95c-1.158-1.158-3.036-1.158-4.195 0l-30.219 30.219-30.219-30.219c-1.158-1.158-3.037-1.158-4.196 0l-7.95 7.95c-1.159 1.158-1.159 3.036 0 4.195l30.219 30.219-30.218 30.22c-1.16 1.159-1.16 3.037 0 4.195l7.949 7.95c1.159 1.159 3.038 1.159 4.196 0l30.219-30.218 30.218 30.218c1.159 1.159 3.037 1.159 4.195 0l7.95-7.95c1.159-1.158 1.159-3.036 0-4.195l-30.217-30.22z"/></svg>
