<?xml version="1.0" encoding="UTF-8" standalone="no"?>
<svg xmlns:rdf="http://www.w3.org/1999/02/22-rdf-syntax-ns#" xmlns="http://www.w3.org/2000/svg" enable-background="new 0 0 100 100" xml:space="preserve" height="66.85" width="97.173" version="1.1" y="0px" x="0px" xmlns:cc="http://creativecommons.org/ns#" xmlns:xlink="http://www.w3.org/1999/xlink" viewBox="0 0 97.172997 66.849998" xmlns:dc="http://purl.org/dc/elements/1.1/"><metadata><rdf:RDF><cc:Work rdf:about=""><dc:format>image/svg+xml</dc:format><dc:type rdf:resource="http://purl.org/dc/dcmitype/StillImage"/><dc:title/></cc:Work></rdf:RDF></metadata><defs><linearGradient id="linearGradient3590" y2="34.35" gradientUnits="userSpaceOnUse" x2="104" y1="33.475" x1="-1.375"><stop style="stop-color:#ff8261" offset="0"/><stop style="stop-color:#52cbf8" offset="1"/></linearGradient></defs><g transform="translate(-1,-13.714)"><path style="fill:url(#linearGradient3590)" d="m33.426 0c-18.431 0-33.426 14.995-33.426 33.426 0 18.43 14.995 33.424 33.426 33.424h38.189c14.092 0 25.559-11.463 25.559-25.555s-11.465-25.557-25.557-25.557l-.0018 9c9.129 0 16.557 7.4276 16.557 16.557 0 9.129-7.4276 16.557-16.557 16.557h-38.189c-13.468 0-24.426-10.958-24.426-24.426 0-13.469 10.958-24.426 24.426-24.426 10.172 0 19.37 6.2804 22.902 15.816l6.397-7.484c-5.808-10.534-17.042-17.332-29.299-17.332z" transform="translate(1,13.714)"/></g></svg>
