<?xml version="1.0" encoding="UTF-8" standalone="no"?>
<svg xmlns:rdf="http://www.w3.org/1999/02/22-rdf-syntax-ns#" xmlns="http://www.w3.org/2000/svg" height="22.001" width="26.001" version="1.1" xmlns:cc="http://creativecommons.org/ns#" xmlns:dc="http://purl.org/dc/elements/1.1/" viewBox="0 0 26.000999 22.000999">
 <path d="m12 13.001v6q0 1.25-.875 2.125t-2.125.875h-6q-1.25 0-2.125-.875t-.875-2.125v-11q0-1.625.633-3.102t1.711-2.555 2.555-1.711 3.102-.633h1q.406 0 .703.297t.297.703v2q0 .406-.297.703t-.703.297h-1q-1.656 0-2.828 1.172t-1.172 2.828v.5q0 .625.438 1.062t1.062.438h3.5q1.25 0 2.125.875t.875 2.125zm14 0v6q0 1.25-.875 2.125t-2.125.875h-6q-1.25 0-2.125-.875t-.875-2.125v-11q0-1.625.633-3.102t1.711-2.555 2.555-1.711 3.102-.633h1q.406 0 .703.297t.297.703v2q0 .406-.297.703t-.703.297h-1q-1.656 0-2.828 1.172t-1.172 2.828v.5q0 .625.438 1.062t1.062.438h3.5q1.25 0 2.125.875t.875 2.125z"/>
</svg>
