<svg xmlns="http://www.w3.org/2000/svg" xmlns:xlink="http://www.w3.org/1999/xlink" version="1.1" x="0px" y="0px" viewBox="0 0 48 48" enable-background="new 0 0 48 48" xml:space="preserve"><g><g><path d="M46.5,47.5h-34c-0.6,0-1-0.4-1-1v-9.8c0-0.6,0.4-1,1-1h34c0.6,0,1,0.4,1,1v9.8    C47.5,47.1,47.1,47.5,46.5,47.5z M13.5,45.5h32v-7.8h-32V45.5z"></path><path d="M24,42.6h-6.2c-0.6,0-1-0.4-1-1s0.4-1,1-1H24c0.6,0,1,0.4,1,1S24.5,42.6,24,42.6z"></path><circle cx="39.6" cy="41.6" r="1.5"></circle></g><g><path d="M46.5,29.9h-34c-0.6,0-1-0.4-1-1v-9.8c0-0.6,0.4-1,1-1h34c0.6,0,1,0.4,1,1v9.8    C47.5,29.5,47.1,29.9,46.5,29.9z M13.5,27.9h32v-7.8h-32V27.9z"></path><path d="M24,25h-6.2c-0.6,0-1-0.4-1-1c0-0.6,0.4-1,1-1H24c0.6,0,1,0.4,1,1C25,24.5,24.5,25,24,25z"></path><circle cx="39.6" cy="24" r="1.5"></circle></g><path d="M12.4,26.4h-1.7c-5.6,0-10.2-4.6-10.2-10.2c0-6.1,5.4-11,11.6-10.1c1.6-3.4,5-5.7,8.8-5.7   c3.3,0,6.4,1.7,8.2,4.5c1.9-1.3,4.2-2,6.6-2c6.5,0,11.8,5.3,11.8,11.7c0,1.6-0.3,3.1-0.9,4.6c-0.2,0.5-0.8,0.7-1.3,0.5   c-0.5-0.2-0.7-0.8-0.5-1.3c0.5-1.2,0.8-2.5,0.8-3.8c0-5.4-4.4-9.7-9.8-9.7c-2.3,0-4.5,0.8-6.3,2.3c-0.2,0.2-0.6,0.3-0.9,0.2   c-0.3-0.1-0.6-0.3-0.7-0.5c-1.3-2.7-4-4.4-7-4.4c-3.3,0-6.2,2.1-7.3,5.1c-0.2,0.5-0.7,0.7-1.2,0.6c-5.3-1.2-10,2.9-10,8   c0,4.5,3.7,8.2,8.2,8.2h1.7c0.6,0,1,0.4,1,1C13.4,26,12.9,26.4,12.4,26.4z"></path></g></svg>