<?xml version="1.0" encoding="UTF-8" standalone="no"?>
<svg xmlns:rdf="http://www.w3.org/1999/02/22-rdf-syntax-ns#" xmlns="http://www.w3.org/2000/svg" enable-background="new 0 0 100 100" xml:space="preserve" height="74.538" width="65.844" version="1.1" y="0px" x="0px" xmlns:cc="http://creativecommons.org/ns#" xmlns:dc="http://purl.org/dc/elements/1.1/" viewBox="0 0 65.844376 74.538086"><g transform="translate(-16.856 -14.262)"><path d="m21.2 48.7c2.9 8.3 6 15.4 10.1 23.2l5.7 10.8c2 3.8 5.9 6.1 10.1 6.1 1.6 0 3.1-.3 4.7-1l2.8-1.2c2.3-1 4.1-2.8 5-5.2.1-.1.1-.3.1-.4 13.6-3.9 23-16.3 23-30.5 0-8.2-3.1-15.9-8.7-21.8-.8-.8-2.1-.9-2.9-.1s-.9 2.1-.1 2.9c4.9 5.2 7.6 11.9 7.6 19 0 11.9-7.5 22.2-18.5 26.1v-.2c0-.3-.1-.5-.2-.8 0-.1-.1-.2-.1-.3-.1-.3-.2-.7-.4-1l-3.5-8.1c-.1-.3-.3-.6-.5-.9 0-.1-.1-.2-.1-.2-.2-.3-.4-.5-.6-.8 0 0 0-.1-.1-.1-.2-.3-.5-.5-.7-.7l-.2-.2c-.2-.2-.4-.3-.6-.5l-.2-.2c-.3-.2-.5-.3-.8-.5-.1-.1-.2-.1-.4-.2s-.4-.2-.6-.2c-.1 0-.2-.1-.3-.1-.3-.1-.6-.2-.9-.2h-.3c-.3 0-.5-.1-.8-.1h-.2-.1-.3-.5-.3c-.2 0-.4 0-.5.1-.1 0-.2.1-.3.1-.2 0-.3.1-.5.1-.3.1-.5.2-.8.3l-1.7.7h-.1c-.1 0-.3-.1-.3-.2l-6.8-15.6c-.1-.2 0-.4.2-.5l1.7-.7c2-.9 3.5-2.5 4.3-4.5.4-1 .6-2.1.6-3.1 0-1.1-.3-2.1-.7-3.1l-3.5-8.1c-.1-.3-.3-.6-.5-.9 6.5-3.4 14.2-4 21.1-1.9h.1l-3.6 1.5c-1 .4-1.5 1.6-1.1 2.7.3.8 1.1 1.3 1.9 1.3.3 0 .5-.1.8-.2l9.7-4.1-4.1-9.7c-.4-1-1.6-1.5-2.7-1.1-1 .4-1.5 1.6-1.1 2.7l1.2 2.9c-3.1-1-6.2-1.4-9.5-1.4-5.5 0-10.9 1.4-15.7 4.2-1.5-1-3.3-1.6-5.2-1.6-1.3 0-2.6.3-3.8.8l-2.6 1.1c-5.6 2.5-8.4 8.9-6.4 14.7l3.7 10.9zm40.5-25.5zm-36.3 3.8 2.6-1.1c.7-.3 1.4-.4 2.1-.4 1.4 0 2.8.6 3.7 1.6.2.2.3.4.5.5l.2.2c.2.3.3.5.5.8l3.5 8.1c.2.5.3 1 .3 1.5 0 .3 0 .5-.1.8 0 .3-.1.5-.2.8-.4 1-1.1 1.8-2.1 2.2l-1.7.7c-2.3 1-3.3 3.7-2.3 5.9l6.8 15.6c.1.3.2.5.4.7 0 .1.1.1.1.2.1.2.3.3.4.5l.1.1c.2.2.4.3.6.5h.1c.2.1.4.2.7.3.1 0 .1 0 .2.1.2.1.4.1.6.2h.1c.3 0 .5.1.8.1.2 0 .4 0 .6-.1h.3c.3-.1.6-.2.9-.3l.4-.2 1.3-.6c.3-.1.5-.2.8-.3h.2c.2 0 .4-.1.6-.1s.5 0 .7.1h.2c.2 0 .4.1.5.2.1 0 .1 0 .2.1l.6.3h.1c.2.1.4.3.6.4l.1.1c.1.1.2.3.4.4 0 .1.1.1.1.2.1.2.3.4.4.6l3.5 8.1.3.9c0 .1 0 .2.1.3 0 .2.1.4.1.6v.3c0 .3 0 .5-.1.8v.1c-.1.3-.2.7-.3 1-.5 1.3-1.5 2.3-2.8 2.9l-2.9 1.3c-.9.4-1.9.6-2.9.6-2.7 0-5.2-1.5-6.5-3.9l-5.8-10.8c-4-7.6-7-14.5-9.9-22.6l-3.8-10.7c-1.3-3.8.5-8 4.1-9.6z"/><path d="m62.3 37.4-11.4 11.5h-.3-.3l-3.5-3.5c-.8-.8-2.1-.8-2.9 0s-.8 2.1 0 2.9l3.7 3.7c.1 1.6 1.4 2.9 3 2.9s3-1.3 3-2.9l11.6-11.6c.8-.8.8-2.1 0-2.9s-2.1-.9-2.9-.1z"/></g></svg>
