<?xml version="1.0" encoding="UTF-8" standalone="no"?>
<svg xmlns:rdf="http://www.w3.org/1999/02/22-rdf-syntax-ns#" xmlns="http://www.w3.org/2000/svg" enable-background="new 0 0 100 100" xml:space="preserve" version="1.0" y="0px" x="0px" xmlns:cc="http://creativecommons.org/ns#" xmlns:dc="http://purl.org/dc/elements/1.1/" viewBox="0 0 71.666 71.667"><g transform="translate(-14,-14)"><path d="m49.833 85.667c-19.758 0-35.833-16.075-35.833-35.834 0-19.758 16.075-35.833 35.833-35.833s35.833 16.075 35.833 35.833c.001 19.759-16.074 35.834-35.833 35.834zm0-69.667c-18.655 0-33.833 15.178-33.833 33.833s15.178 33.833 33.833 33.833 33.833-15.178 33.833-33.833-15.177-33.833-33.833-33.833z"/></g><g transform="translate(-14,-14)"><path d="m75.667 50.833c-.553 0-1-.448-1-1 0-13.693-11.141-24.833-24.834-24.833s-24.833 11.14-24.833 24.833c0 .552-.448 1-1 1s-1-.448-1-1c0-14.795 12.038-26.833 26.833-26.833 14.796 0 26.833 12.038 26.833 26.833.001.553-.446 1-.999 1z"/></g><g transform="translate(-14,-14)"><path d="m51.489 47.584-15.329-9.447 9.3 15.091c.097 1.205.604 2.384 1.526 3.306 2.062 2.062 5.404 2.062 7.466 0s2.062-5.404 0-7.466c-.835-.834-1.879-1.325-2.963-1.484z"/></g></svg>
