<svg xmlns="http://www.w3.org/2000/svg" xmlns:xlink="http://www.w3.org/1999/xlink" version="1.1" x="0px" y="0px" viewBox="0 0 100 100" enable-background="new 0 0 100 100" xml:space="preserve"><path d="M41.492,11.305c7.653,0,14.313,4.217,17.811,10.448c1.229-0.389,2.535-0.601,3.893-0.601c5.82,0,10.734,3.857,12.34,9.154  c10.383,0.961,18.516,9.689,18.516,20.323c0,11.278-9.143,20.42-20.42,20.42H26.368c-11.277,0-20.42-9.142-20.42-20.42  c0-9.457,6.438-17.39,15.165-19.712C21.54,20.018,30.487,11.305,41.492,11.305 M41.492,8.305c-11.893,0-21.701,8.784-23.197,20.36  C9.16,32.016,2.948,40.763,2.948,50.63c0,12.914,10.506,23.42,23.42,23.42h47.263c12.914,0,23.42-10.506,23.42-23.42  c0-11.522-8.186-21.12-19.336-23.058c-2.525-5.707-8.137-9.42-14.52-9.42c-0.838,0-1.67,0.065-2.492,0.196  C56.35,12.102,49.179,8.305,41.492,8.305L41.492,8.305z"></path><path d="M94,91H64v-0.5c0-0.828-0.672-1.5-1.5-1.5H51V74c0-0.828-0.671-1.5-1.5-1.5S48,73.172,48,74v15H37.5  c-0.829,0-1.5,0.672-1.5,1.5V91H4c-0.829,0-1.5,0.672-1.5,1.5S3.171,94,4,94h32v0.5c0,0.828,0.671,1.5,1.5,1.5h25  c0.828,0,1.5-0.672,1.5-1.5V94h30c0.828,0,1.5-0.672,1.5-1.5S94.828,91,94,91z"></path></svg>