<svg xmlns="http://www.w3.org/2000/svg" xmlns:xlink="http://www.w3.org/1999/xlink" version="1.1" x="0px" y="0px" viewBox="-247 370.9 100 100" enable-background="new -247 370.9 100 100" xml:space="preserve"><g><path d="M-159.5,375.9h-75c-2.1,0-3.7,1.7-3.7,3.8v19.5c0,2,1.6,3.7,3.7,3.7h74.9c2.1,0,3.8-1.7,3.8-3.8v-19.4   C-155.8,377.6-157.4,375.9-159.5,375.9z M-157.6,399.1c0,1-0.8,1.9-1.9,1.9h-75c-1,0-1.9-0.8-1.9-1.9v-19.4c0-1,0.8-1.9,1.9-1.9   h74.9c1,0,1.9,0.8,1.9,1.9L-157.6,399.1L-157.6,399.1z"></path><path d="M-159.5,438.9h-75c-2.1,0-3.8,1.7-3.8,3.8v19.5c0,2.1,1.7,3.8,3.8,3.8h74.9c2.1,0,3.8-1.7,3.8-3.8v-19.5   C-155.8,440.6-157.4,438.9-159.5,438.9z M-157.6,462.1c0,1-0.8,1.9-1.9,1.9h-75c-1,0-1.9-0.8-1.9-1.9v-19.4c0-1,0.8-1.9,1.9-1.9   h74.9c1,0,1.9,0.8,1.9,1.9L-157.6,462.1L-157.6,462.1z"></path><path d="M-159.5,407.4h-75c-2.1,0-3.8,1.7-3.8,3.8v19.5c0.1,2,1.7,3.7,3.8,3.7h74.9c2.1,0,3.8-1.7,3.8-3.8v-19.4   C-155.8,409.1-157.4,407.4-159.5,407.4z M-157.6,430.6c0,1-0.8,1.9-1.9,1.9h-75c-1,0-1.9-0.8-1.9-1.9v-19.4c0-1,0.8-1.9,1.9-1.9   h74.9c1,0,1.9,0.8,1.9,1.9L-157.6,430.6L-157.6,430.6z"></path><circle cx="-172.6" cy="420.9" r="3.8"></circle><circle cx="-172.6" cy="389.4" r="3.8"></circle><circle cx="-172.6" cy="452.2" r="3.8"></circle><path d="M-198.9,387.5h-26.2c-1.1,0-1.9,0.8-1.9,1.9s0.8,1.9,1.9,1.9h26.3c1.1,0,1.9-0.8,1.9-1.9   C-197,388.3-197.8,387.5-198.9,387.5z"></path><path d="M-198.9,419h-26.2c-1.1,0-1.9,0.8-1.9,1.9s0.8,1.9,1.9,1.9h26.3c1.1,0,1.9-0.8,1.9-1.9C-197,419.8-197.8,419-198.9,419z"></path><path d="M-198.9,450.3h-26.2c-1.1,0-1.9,0.8-1.9,1.9s0.8,1.9,1.9,1.9h26.3c1.1,0,1.9-0.8,1.9-1.9   C-197,451.1-197.8,450.3-198.9,450.3z"></path></g></svg>